<?xml version="1.0" encoding="utf-8"?>
<!-- Generator: Adobe Illustrator 16.0.0, SVG Export Plug-In . SVG Version: 6.00 Build 0)  -->
<!DOCTYPE svg PUBLIC "-//W3C//DTD SVG 1.1//EN" "http://www.w3.org/Graphics/SVG/1.1/DTD/svg11.dtd">
<svg version="1.1" id="圖層_1" xmlns="http://www.w3.org/2000/svg" xmlns:xlink="http://www.w3.org/1999/xlink" x="0px" y="0px"
	 width="278.536px" height="132.814px" viewBox="0 0 278.536 132.814" enable-background="new 0 0 278.536 132.814"
	 xml:space="preserve">
<g>
	<path fill="#04447C" d="M119.06,8.764c4.131,1.422,7.66,3.17,10.789,5.348c3.625,2.521,6.943,5.762,9.863,9.631
		c3.107,4.119,5.537,9.328,6.838,14.664c1.063,4.352,1.41,9.174,1.064,14.744c-0.033,0.531,0.357,0.996,0.889,1.055
		c0.521,0.068,1.012-0.307,1.098-0.834c0.559-3.461,0.807-6.199,0.803-8.883c-0.084-12.484-5.58-24.492-15.076-32.945
		c-7.973-7.098-18.125-11.078-29.359-11.512c-7.719-0.299-15.719,1.537-22.182,5.08c-7.314,4.012-12.904,8.816-16.615,14.281
		c-4.488,6.613-7.219,13.055-8.119,19.16c-2.506-0.387-4.697-0.482-6.963-0.311c-5.314,0.398-10.309,2.348-14.842,5.797
		c-2.996,2.279-5.596,5.412-7.322,8.822c-1.477,2.91-2.439,5.969-2.867,9.086c-0.182,1.324-0.191,2.652-0.201,3.938l-0.006,0.611
		c-0.006,0.514,0.008,1.613,0.18,2.742C17.019,69.864,8.056,75.204,3.44,83.372c-1.668,2.953-2.742,6.197-3.193,9.641
		c-0.004,0.018-0.006,0.035-0.01,0.053c0,0-0.053,0.313-0.107,0.854c0,0.002-0.01,0.1-0.01,0.102
		c-0.043,0.449-0.086,1.051-0.111,1.863c-0.154,6.24,1.51,21.232,20.332,25.701c0.074,0.012,7.504,1.139,15.584,1.139
		c4.779,0,8.859-0.387,12.129-1.152c1.998-0.467,2.824-0.662,2.707-1.676c-0.113-0.975-1.09-0.975-1.875-0.975
		c-0.527,0-1.273,0.02-2.195,0.045c-1.43,0.039-3.387,0.092-5.582,0.092c-15.344,0-25.252-2.621-29.467-7.805
		c-0.037-0.045-3.805-4.525-5.023-9.43C5.542,96.63,6.38,91.37,8.978,87.011c2.588-4.342,6.693-7.49,12.207-9.357
		c1.811-0.615,3.803-0.963,5.92-1.034l0.859-0.035c0.637-0.027,1.281-0.055,1.926-0.055c1.035,0,1.854,0.074,2.578,0.235
		c3.973,0.871,7.445,3.586,9.658,5.711c0.33,0.318,0.834,0.369,1.221,0.127c0.389-0.242,0.563-0.719,0.424-1.154
		c-1.164-3.623-3.146-6.727-5.73-8.979c-0.588-0.51-0.75-0.621-1.84-1.33c-0.564-0.369-0.967-0.629-1.227-0.795
		c-0.119-0.602-0.291-1.502-0.338-1.863c-0.117-0.928-0.24-1.887-0.17-2.758c0.203-2.563,0.5-4.707,1.297-6.844
		c0.699-1.871,1.693-3.629,3.076-5.422c1.002-1.482,2.637-2.725,3.975-3.742c1.953-1.58,4.859-2.852,7.404-3.242
		c2.955-0.453,5.207-0.477,7.42-0.094c0.826,0.143,1.652,0.334,2.508,0.584c1.268,4.809,4.613,8.352,8.281,8.697
		c0.4,0.041,0.787-0.172,0.977-0.529s0.145-0.795-0.113-1.107c-0.295-0.355-7.125-8.889,0.668-24.002
		c1.846-3.98,4.326-7.613,7.371-10.799c7.596-7.945,18.299-12.504,29.365-12.504C110.958,6.719,115.118,7.407,119.06,8.764z"/>
	<g>
		<g>
			<path fill="#04447C" d="M93.314,92.808c-3.261,0-5.732-0.912-7.413-2.738c-1.683-1.826-2.522-4.641-2.522-8.443
				c0-3.695,0.819-6.488,2.461-8.379c1.641-1.891,4.132-2.836,7.475-2.836c1.087,0,2.174,0.141,3.262,0.421
				c1.086,0.281,2.143,0.67,3.168,1.167v3.89c-1.025-0.691-2.035-1.188-3.03-1.491c-0.995-0.302-1.943-0.454-2.846-0.454
				c-1.354,0-2.486,0.254-3.398,0.762c-0.913,0.508-1.6,1.324-2.062,2.447c-0.462,1.124-0.692,2.626-0.692,4.506
				c0,1.858,0.23,3.344,0.692,4.456c0.462,1.113,1.158,1.918,2.092,2.416c0.933,0.496,2.107,0.744,3.522,0.744
				c0.841,0,1.748-0.145,2.723-0.438c0.974-0.291,1.974-0.771,2.999-1.441v3.889c-0.595,0.303-1.251,0.573-1.969,0.811
				c-0.718,0.238-1.461,0.416-2.23,0.535C94.776,92.749,94.032,92.808,93.314,92.808z"/>
			<path fill="#04447C" d="M108.942,92.452h-3.876V69.924h3.876V92.452z"/>
			<path fill="#04447C" d="M121.616,92.938c-2.563,0-4.48-0.746-5.752-2.237c-1.272-1.491-1.907-3.641-1.907-6.45
				c0-3.025,0.65-5.219,1.953-6.58c1.302-1.361,3.194-2.042,5.676-2.042c1.723,0,3.153,0.319,4.291,0.957
				c1.139,0.638,1.994,1.593,2.569,2.869c0.573,1.275,0.861,2.874,0.861,4.797c0,2.81-0.667,4.959-2,6.45
				S124.077,92.938,121.616,92.938z M121.585,89.567c0.902,0,1.635-0.217,2.199-0.648s0.979-1.049,1.246-1.848s0.4-1.739,0.4-2.82
				c0-1.231-0.139-2.236-0.416-3.014c-0.276-0.779-0.697-1.352-1.261-1.719c-0.564-0.367-1.287-0.551-2.169-0.551
				c-0.902,0-1.631,0.194-2.185,0.584c-0.554,0.389-0.953,0.972-1.199,1.75c-0.246,0.777-0.369,1.762-0.369,2.949
				c0,1.707,0.292,3.02,0.877,3.938C119.293,89.108,120.251,89.567,121.585,89.567z"/>
			<path fill="#04447C" d="M141.365,92.938c-1.415,0-2.656-0.244-3.722-0.73c-1.066-0.486-1.893-1.215-2.477-2.188
				c-0.585-0.973-0.877-2.215-0.877-3.728V76.115h3.907v9.724c0,1.211,0.256,2.107,0.769,2.691c0.513,0.583,1.323,0.875,2.431,0.875
				s1.912-0.292,2.415-0.875c0.502-0.584,0.754-1.48,0.754-2.691v-9.724h3.722v10.178c0,2.248-0.615,3.917-1.846,5.008
				C145.21,92.393,143.518,92.938,141.365,92.938z"/>
			<path fill="#04447C" d="M161.268,92.938c-1.066,0-2.081-0.136-3.045-0.406c-0.965-0.27-1.815-0.729-2.554-1.377
				s-1.317-1.545-1.738-2.69c-0.42-1.146-0.63-2.593-0.63-4.343c0-2.615,0.604-4.679,1.814-6.191s3.046-2.269,5.507-2.269
				c0.349,0,0.8,0.038,1.354,0.113c0.554,0.076,1.123,0.222,1.707,0.438c0.585,0.216,1.093,0.53,1.523,0.94l-0.861,1.329v-9.141
				h3.876v19.254c0,0.734-0.205,1.377-0.615,1.928c-0.411,0.552-0.949,1-1.615,1.346c-0.667,0.346-1.41,0.61-2.23,0.794
				S162.109,92.938,161.268,92.938z M161.422,89.437c0.82,0,1.512-0.113,2.076-0.34s0.847-0.535,0.847-0.924v-8.298
				c-0.452-0.28-0.934-0.485-1.446-0.616c-0.513-0.129-1.005-0.193-1.477-0.193c-0.923,0-1.697,0.178-2.322,0.534
				c-0.626,0.356-1.088,0.919-1.385,1.686c-0.298,0.768-0.446,1.745-0.446,2.934c0,1.016,0.123,1.912,0.369,2.69
				c0.246,0.777,0.672,1.394,1.277,1.848C159.52,89.21,160.356,89.437,161.422,89.437z"/>
			<path fill="#04447C" d="M174.22,92.452v-21.62h4.214v18.022h9.353v3.598H174.22z"/>
			<path fill="#04447C" d="M199.26,92.938c-1.538,0-2.887-0.336-4.046-1.006c-1.158-0.669-2.056-1.637-2.691-2.9
				s-0.953-2.793-0.953-4.587c0-2.853,0.65-5.034,1.953-6.548c1.302-1.512,3.143-2.269,5.521-2.269c1.682,0,3.046,0.389,4.092,1.167
				c1.046,0.777,1.805,1.891,2.276,3.339s0.697,3.165,0.677,5.153h-11.997l-0.277-2.787h9.168l-0.739,1.166
				c-0.041-1.706-0.322-2.933-0.846-3.678c-0.522-0.746-1.358-1.119-2.507-1.119c-0.697,0-1.303,0.168-1.815,0.503
				s-0.907,0.892-1.185,1.669c-0.276,0.777-0.415,1.848-0.415,3.209c0,1.686,0.374,2.972,1.123,3.857
				c0.748,0.887,1.902,1.328,3.461,1.328c0.636,0,1.246-0.064,1.83-0.193c0.585-0.13,1.128-0.297,1.631-0.503
				c0.502-0.205,0.938-0.394,1.308-0.567v3.663c-0.738,0.324-1.56,0.589-2.461,0.794C201.464,92.835,200.429,92.938,199.26,92.938z"
				/>
			<path fill="#04447C" d="M216.918,92.938c-0.882,0-1.713-0.088-2.492-0.26c-0.779-0.174-1.477-0.465-2.092-0.875
				s-1.103-0.967-1.461-1.67c-0.359-0.701-0.538-1.572-0.538-2.609c0-1.123,0.215-2.068,0.646-2.836
				c0.431-0.767,1.062-1.35,1.892-1.75c0.831-0.4,1.851-0.6,3.062-0.6c0.738,0,1.425,0.07,2.061,0.211s1.21,0.335,1.723,0.583
				c0.513,0.249,0.934,0.514,1.262,0.794l0.277,2.302c-0.432-0.303-0.98-0.546-1.646-0.729s-1.39-0.275-2.169-0.275
				c-1.087,0-1.896,0.184-2.43,0.551c-0.534,0.367-0.8,0.939-0.8,1.718c0,0.519,0.143,0.962,0.431,1.329
				c0.287,0.367,0.656,0.638,1.107,0.811c0.45,0.173,0.923,0.26,1.415,0.26c1.128,0,1.942-0.082,2.445-0.244
				s0.754-0.513,0.754-1.053v-6.418c0-1.059-0.318-1.832-0.954-2.318c-0.636-0.485-1.527-0.729-2.676-0.729
				c-0.882,0-1.784,0.156-2.707,0.47s-1.672,0.719-2.246,1.216v-3.728c0.554-0.389,1.385-0.718,2.492-0.989
				c1.107-0.27,2.296-0.405,3.568-0.405c0.533,0,1.097,0.049,1.691,0.146s1.169,0.265,1.724,0.502
				c0.554,0.238,1.056,0.573,1.507,1.004c0.451,0.433,0.81,0.968,1.077,1.605c0.266,0.637,0.399,1.409,0.399,2.316l-0.03,7.747
				c0,0.995-0.303,1.778-0.908,2.351c-0.604,0.572-1.456,0.978-2.553,1.215C219.651,92.819,218.375,92.938,216.918,92.938z"/>
			<path fill="#04447C" d="M237.221,92.938c-1.066,0-2.081-0.136-3.045-0.406c-0.965-0.27-1.815-0.729-2.554-1.377
				s-1.317-1.545-1.738-2.69c-0.42-1.146-0.63-2.593-0.63-4.343c0-2.615,0.604-4.679,1.814-6.191s3.046-2.269,5.507-2.269
				c0.349,0,0.8,0.038,1.354,0.113c0.554,0.076,1.123,0.222,1.707,0.438c0.585,0.216,1.093,0.53,1.523,0.94l-0.861,1.329v-9.141
				h3.876v19.254c0,0.734-0.205,1.377-0.615,1.928c-0.411,0.552-0.949,1-1.615,1.346c-0.667,0.346-1.41,0.61-2.23,0.794
				S238.062,92.938,237.221,92.938z M237.375,89.437c0.82,0,1.512-0.113,2.076-0.34s0.847-0.535,0.847-0.924v-8.298
				c-0.452-0.28-0.934-0.485-1.446-0.616c-0.513-0.129-1.005-0.193-1.477-0.193c-0.923,0-1.697,0.178-2.322,0.534
				c-0.626,0.356-1.088,0.919-1.385,1.686c-0.298,0.768-0.446,1.745-0.446,2.934c0,1.016,0.123,1.912,0.369,2.69
				c0.246,0.777,0.672,1.394,1.277,1.848C235.473,89.21,236.309,89.437,237.375,89.437z"/>
			<path fill="#04447C" d="M256.879,92.938c-1.538,0-2.887-0.336-4.046-1.006c-1.158-0.669-2.056-1.637-2.691-2.9
				s-0.953-2.793-0.953-4.587c0-2.853,0.65-5.034,1.953-6.548c1.302-1.512,3.143-2.269,5.521-2.269c1.682,0,3.046,0.389,4.092,1.167
				c1.046,0.777,1.805,1.891,2.276,3.339s0.697,3.165,0.677,5.153h-11.997l-0.277-2.787h9.168l-0.739,1.166
				c-0.041-1.706-0.322-2.933-0.846-3.678c-0.522-0.746-1.358-1.119-2.507-1.119c-0.697,0-1.303,0.168-1.815,0.503
				s-0.907,0.892-1.185,1.669c-0.276,0.777-0.415,1.848-0.415,3.209c0,1.686,0.374,2.972,1.123,3.857
				c0.748,0.887,1.902,1.328,3.461,1.328c0.636,0,1.246-0.064,1.83-0.193c0.585-0.13,1.128-0.297,1.631-0.503
				c0.502-0.205,0.938-0.394,1.308-0.567v3.663c-0.738,0.324-1.56,0.589-2.461,0.794C259.083,92.835,258.048,92.938,256.879,92.938z
				"/>
			<path fill="#04447C" d="M268.722,92.452V77.704c0.287-0.217,0.795-0.48,1.522-0.795c0.729-0.313,1.574-0.594,2.538-0.842
				s1.938-0.373,2.923-0.373c0.738,0,1.327,0.06,1.769,0.178c0.441,0.119,0.795,0.265,1.062,0.438v3.111
				c-0.41-0.064-0.877-0.118-1.399-0.162c-0.523-0.043-1.057-0.059-1.6-0.048c-0.544,0.011-1.067,0.038-1.569,0.081
				c-0.503,0.043-0.949,0.098-1.338,0.162v12.998H268.722z"/>
		</g>
	</g>
	<g>
		<g>
			<path fill="#04447C" d="M103.024,120.325h-4.687c1.387,1.078,3.015,2.398,3.873,3.346l-2.377,1.056
				c-0.242-0.286-0.55-0.616-0.902-0.99c-10.803,0.418-12.079,0.44-13.004,0.748c-0.153-0.506-0.55-1.738-0.836-2.421
				c0.418-0.065,0.836-0.308,1.32-0.66c0.286-0.176,0.836-0.571,1.452-1.078h-4.753v-1.979h19.913V120.325z M85.73,111.964h-2.311
				V107.3h8.317v-0.727h-6.843v-1.848h16.26v1.848h-6.843v0.727h8.427v4.664h-2.42v-3.035h-6.007v5.809h-2.574v-5.809H85.73V111.964
				z M85.158,113.396c1.32-0.309,3.168-0.881,5.083-1.432c-0.946-0.483-2.816-1.166-4.159-1.584l0.925-1.43
				c1.319,0.374,3.234,1.012,4.225,1.452l-0.925,1.54l0.727-0.22l0.286,1.716c-1.826,0.705-3.741,1.431-5.325,2.024L85.158,113.396z
				 M100.516,117.443H85.708v-1.892h14.809V117.443z M96.797,121.845c-0.484-0.396-0.968-0.793-1.431-1.145l0.881-0.375h-4.841
				c-0.683,0.595-1.387,1.189-2.091,1.717L96.797,121.845z M100.186,110.601c-1.188,0.55-2.816,1.012-4.093,1.32
				c1.606,0.462,3.652,1.188,4.797,1.672l-0.792,1.782c-1.188-0.595-3.631-1.496-5.392-2.046l0.749-1.453l-0.793-1.275
				c1.276-0.309,3.235-1.057,4.379-1.584L100.186,110.601z"/>
			<path fill="#04447C" d="M129.138,107.233v3.631h-2.42v-2.156h-1.254l0.704,0.969c-0.881,0.352-2.068,0.638-3.037,0.836
				c1.299,0.22,2.663,0.55,3.521,0.836l-0.439,1.475c-1.166-0.418-3.411-0.969-5.083-1.232l0.44-1.32l0.483,0.066l-0.55-0.814
				c0.814-0.154,1.893-0.506,2.816-0.814h-3.631v3.961h-2.574v-3.961h-3.322c0.99,0.198,2.024,0.439,2.618,0.682l-0.462,1.057
				l0.594-0.088l0.089,1.408c-1.585,0.352-3.125,0.704-4.533,1.012h0.33v0.727h2.904v-0.727h2.091v0.727h1.672v1.54h-1.672v1.849
				h-2.53v0.594h3.476v3.301h-3.476v0.66h3.806v1.584h-3.806v1.605h-2.201v-1.605h-4.114v-1.584h4.114v-0.66h-3.366v-3.301h3.366
				v-0.594h-2.266v-1.849h-1.761v-1.54h1.761v-0.727h1.452l-0.572-1.672c1.056-0.132,2.42-0.33,3.917-0.572
				c-0.946-0.285-2.223-0.615-3.235-0.77l0.528-1.057h-1.386v2.135h-2.311v-3.609h8.295v-0.682h-6.82v-1.76h16.26v1.76h-6.865v0.682
				H129.138z M113.692,119.556v-0.836h-1.474v0.836H113.692z M113.428,115.045v0.66h2.904v-0.66H113.428z M115.893,118.72v0.836
				h1.496v-0.836H115.893z M128.588,122.218c0,1.057-0.176,1.606-0.88,1.959c-0.683,0.33-1.65,0.373-3.015,0.352
				c-0.088-0.616-0.352-1.475-0.616-2.047c0.704,0.022,1.563,0.022,1.782,0.022c0.265,0,0.353-0.088,0.353-0.33v-1.254h-3.455
				c-0.22,1.386-0.638,2.729-1.408,3.807c-0.462-0.33-1.496-0.88-2.068-1.078c1.364-1.804,1.496-4.269,1.496-6.205v-4.114h7.812
				V122.218z M126.212,119.226v-1.188H123c-0.021,0.373-0.021,0.791-0.044,1.188H126.212z M123,115.243v1.1h3.213v-1.1H123z"/>
			<path fill="#04447C" d="M142.82,118.126c-0.264-0.617-0.792-1.541-1.32-2.421v8.933h-2.53v-7.92
				c-0.726,1.693-1.54,3.256-2.398,4.355c-0.241-0.748-0.813-1.826-1.21-2.486c1.232-1.408,2.465-3.762,3.257-5.896h-2.971v-2.441
				h3.322v-2.486c-0.857,0.131-1.672,0.264-2.486,0.352c-0.088-0.594-0.418-1.453-0.704-2.024c2.509-0.374,5.259-1.056,7.085-1.804
				l1.475,2.134c-0.858,0.33-1.826,0.594-2.839,0.813v3.016h2.905v2.441H141.5v0.176c0.639,0.617,2.442,2.686,2.861,3.191
				L142.82,118.126z M153.667,119.071v5.545h-2.574v-5.082l-6.645,1.144l-0.418-2.486l7.063-1.21v-12.895h2.574v12.454l2.179-0.374
				l0.418,2.442L153.667,119.071z M148.145,116.013c-0.683-0.968-2.223-2.376-3.499-3.366l1.673-1.496
				c1.254,0.88,2.882,2.245,3.608,3.19L148.145,116.013z M148.717,110.204c-0.616-0.945-2.047-2.354-3.278-3.301l1.716-1.496
				c1.188,0.902,2.729,2.201,3.389,3.169L148.717,110.204z"/>
			<path fill="#04447C" d="M169.661,115.837c-0.771,0.221-1.563,0.44-2.354,0.639v5.258c0,1.277-0.242,1.893-0.99,2.311
				c-0.726,0.396-1.782,0.463-3.322,0.463c-0.11-0.66-0.44-1.695-0.748-2.377c0.858,0.021,1.76,0.021,2.046,0.021
				c0.33,0,0.418-0.109,0.418-0.439v-4.533l-2.134,0.529l-0.683-2.486c0.814-0.154,1.761-0.375,2.816-0.639v-3.895h-2.53v-2.42h2.53
				v-4.182h2.597v4.182h2.156v2.42h-2.156v3.256l2.024-0.506L169.661,115.837z M181.85,112.866
				c-0.836,3.059-2.244,5.457-4.093,7.306c1.431,1.013,3.125,1.738,5.083,2.222c-0.55,0.529-1.298,1.585-1.672,2.268
				c-2.135-0.639-3.961-1.541-5.479-2.773c-1.716,1.188-3.652,2.068-5.786,2.707c-0.286-0.705-0.925-1.805-1.408-2.377
				c1.937-0.462,3.719-1.166,5.259-2.156c-1.299-1.475-2.333-3.213-3.125-5.236l0.66-0.198h-1.144v-2.354h4.334v-2.641h-4.73v-2.42
				h4.73v-3.146h2.597v3.146h4.929v2.42h-4.929v2.641h2.641l0.462-0.109L181.85,112.866z M173.181,114.627
				c0.616,1.452,1.496,2.772,2.597,3.895c1.144-1.101,2.09-2.398,2.75-3.895H173.181z"/>
		</g>
	</g>
</g>
</svg>
